<svg width="600" height="600" viewBox="0 0 600 600" fill="none" xmlns="http://www.w3.org/2000/svg">
<g clip-path="url(#clip0_84_14)">
<rect width="600" height="600" rx="300" fill="#8B423C"/>
<path fill-rule="evenodd" clip-rule="evenodd" d="M387.578 132C387.734 132 387.881 132 388.028 132C476.018 243.999 564.009 355.997 652 467.996C650.367 467.947 648.212 465.026 647.052 463.747C643.737 460.08 640.096 456.667 636.601 453.173C621.905 438.505 607.437 423.584 592.937 408.728C544.912 359.533 496.455 310.748 448.177 261.808C440.102 253.621 432.109 245.36 423.968 237.239C419.813 233.097 415.387 229.077 411.493 224.688C408.072 220.841 404.292 217.256 400.626 213.639C399.099 212.129 397.425 209.611 395.368 209.143C394.919 212.482 395.531 216.182 395.531 219.586C395.531 229.298 395.621 239.019 395.735 248.732C396.102 279.346 396.854 310.035 396.854 340.649C396.854 351.707 397.303 362.757 397.303 373.831C397.303 376.292 398.005 384.184 396.707 385.693C376.646 365.956 357.753 345.021 337.962 325.014C332.924 319.92 328.033 314.678 322.98 309.583C320.816 307.401 318.334 303.57 315.484 302.447C276.955 341.314 238.426 380.189 199.897 419.056C199.881 416.652 202.371 413.535 203.636 411.435C207.351 405.282 210.682 398.777 214.25 392.551C225.689 372.601 237.063 352.478 248.036 332.274C251.236 326.375 254.641 320.641 257.866 314.793C259.409 311.995 262.038 308.845 262.545 305.679C246.419 286.163 230.302 266.656 214.177 247.149C197.513 278.165 180.857 309.19 164.193 340.206C159.571 338.311 154.762 336.941 150.117 335.26C147.749 334.406 145.055 332.897 142.54 333.028C133.396 352.076 124.251 371.124 115.098 390.172C113.841 386.464 113.621 382.239 112.951 378.376C111.775 371.6 110.534 364.84 109.195 358.106C108.559 354.849 108.803 350.673 107.073 347.794C103.121 349.599 99.6672 353.331 96.1564 355.907C88.1795 361.764 80.5128 367.999 72.5768 373.905C44.8577 394.552 17.955 416.357 -9.95187 436.742C-20.2394 444.256 -30.2329 452.254 -40.3653 459.973C-42.6188 461.688 -49.7955 468.185 -52 467.996C-49.5098 463.615 -41.092 456.388 -37.2872 452.311C-24.5667 438.645 -11.6256 425.175 1.16843 411.582C22.8538 388.531 44.8577 365.817 66.3716 342.601C72.7401 335.727 79.5494 329.165 85.6974 322.102C88.4163 318.976 93.3477 312.775 96.6299 310.625C98.5813 309.346 111.106 310.1 114.208 310.1C115.743 310.1 118.495 310.674 119.76 309.682C122.651 307.426 124.553 303.513 126.929 300.749C132.383 294.407 137.339 287.607 142.597 281.085C158.469 261.398 173.933 241.406 189.789 221.76C194.116 216.403 198.378 210.964 202.632 205.542C204.959 202.572 207.196 198.7 210.16 196.42C232.923 220.513 255.678 244.606 278.441 268.707C314.823 223.138 351.205 177.569 387.578 132Z" fill="#F3F4F0" fill-opacity="0.97"/>
</g>
<defs>
<clipPath id="clip0_84_14">
<rect width="600" height="600" rx="300" fill="white"/>
</clipPath>
</defs>
</svg>
